<svg width="32" height="32" viewBox="0 0 32 32" fill="none" xmlns="http://www.w3.org/2000/svg">
<g clip-path="url(#clip0_2_813)">
<path d="M10.6705 16.3349C11.0644 16.2533 11.4761 16.0745 11.8644 15.7942C12.981 14.9865 13.4766 13.6603 12.9702 12.8305C12.4196 11.9279 10.9134 11.9886 9.75601 13.0158C8.64922 13.9714 8.41309 14.9699 8.41309 16.0194C8.41309 16.7609 8.65025 18.0849 10.099 19.2347C10.7831 18.7062 11.5986 18.2714 12.5243 17.957L12.5365 17.9525C11.8253 17.6561 10.8981 17.0711 10.6705 16.3349ZM10.4918 13.7827C10.4918 13.4726 10.7389 13.2233 11.0436 13.2233C11.348 13.2233 11.5953 13.4738 11.5953 13.7838C11.5953 14.0939 11.348 14.3432 11.0436 14.3432C10.7389 14.3432 10.4918 14.0927 10.4918 13.7827Z" fill="white"/>
<path d="M23.607 16.0204C23.6036 14.9699 23.3686 13.9714 22.2609 13.0158C21.1043 11.9896 19.5971 11.9267 19.0465 12.8305C18.5411 13.6602 19.0354 14.9865 20.152 15.7942C20.5405 16.0745 20.9521 16.2532 21.346 16.3348C21.2092 16.7773 20.7932 17.2275 20.1588 17.6071C19.2864 18.1278 18.8152 18.1922 13.2336 20.0456C11.1681 20.7474 9.93896 22.142 9.93896 23.7763C9.93896 24.9404 10.5336 25.8385 11.36 26.4962C11.8798 25.961 12.5287 25.4966 13.2867 25.1246C12.4139 24.6833 12.1446 24.3489 12.1446 23.7763C12.1446 22.8311 14.0339 22.2907 14.9055 22.0031V24.3953L17.1123 23.411V22.0042C17.9853 22.2933 19.8698 22.833 19.8698 23.7763C19.8698 25.3455 15.3762 26.2709 13.4644 27.5897C12.5365 28.2329 12.0375 29.0506 12.0375 30.0117C12.0375 30.5634 12.1017 31.2475 13.0704 31.9272C13.3451 32.1466 13.7267 31.8261 13.5483 31.5177C12.9082 30.2367 13.5879 29.5968 14.9076 29.0428V30.8943C14.9076 31.5034 15.402 31.9977 16.0111 31.9977C16.6201 31.9977 17.1145 31.5034 17.1145 30.8943V29.0439C18.3822 29.5757 19.1801 30.3272 18.4706 31.5177C18.2947 31.8201 18.6692 32.1493 18.9472 31.9272C19.8851 31.2165 19.9591 30.6074 19.9591 30.026C19.9591 29.1312 19.4692 28.2628 18.5401 27.5974C20.4182 26.9188 22.0798 25.7768 22.0798 23.7785C22.0798 22.3981 21.2028 21.1888 19.6866 20.423C20.3948 20.1681 20.7512 19.9971 21.2246 19.7147C23.298 18.4755 23.607 16.8679 23.607 16.0204ZM20.9743 14.3432C20.6696 14.3432 20.4226 14.0927 20.4226 13.7827C20.4226 13.4726 20.6696 13.2221 20.9743 13.2221C21.2787 13.2221 21.526 13.4726 21.526 13.7827C21.526 14.0927 21.2787 14.3432 20.9743 14.3432Z" fill="white"/>
<path d="M31.4477 2.20896H23.891C22.4085 2.20896 21.2961 2.86425 20.3391 3.82132C19.2994 4.86101 18.7588 7.17218 17.1033 7.17218V4.10759C17.7603 3.72533 18.2067 3.0217 18.2067 2.20683C18.2067 0.988037 17.2188 0 15.9999 0C14.7811 0 13.7931 0.988037 13.7931 2.20683C13.7931 3.02163 14.2396 3.72526 14.8965 4.10759V17.2579C15.5775 17.0406 16.3249 16.8012 17.1033 16.5513V11.0242C17.5821 10.784 17.9683 10.3957 18.2052 9.91506C18.589 10.571 19.3186 11.0363 20.1319 11.0363C20.9568 11.0363 21.6674 10.5783 22.0461 9.90802C23.3387 11.2007 25.7414 11.2256 27.034 9.93299L25.1589 8.05788L26.0191 8.41421C27.7081 9.11384 29.6445 8.31173 30.3443 6.62268L27.6804 5.51927C30.261 5.5192 31.4477 3.89987 31.4477 2.20896Z" fill="white"/>
<path d="M11.6607 3.82135C10.7037 2.86427 9.59128 2.20898 8.10884 2.20898H0.552124C0.552124 3.89983 1.73878 5.51922 4.31938 5.51922L1.65554 6.62263C2.35524 8.31168 4.29166 9.11373 5.98071 8.41416L6.84089 8.05783L4.96577 9.93294C6.25842 11.2257 8.6611 11.2008 9.95375 9.90798C10.3324 10.5783 11.043 11.0363 11.8679 11.0363C11.876 11.0363 11.8842 11.0362 11.8923 11.0361C12.9705 11.0239 13.7946 10.05 13.7946 8.9718V6.75187C12.9249 6.03831 12.4268 4.58739 11.6607 3.82135Z" fill="white"/>
</g>
<defs>
<clipPath id="clip0_2_813">
<rect width="32" height="32" fill="white"/>
</clipPath>
</defs>
</svg>
