<svg width="32" height="32" viewBox="0 0 32 32" fill="none" xmlns="http://www.w3.org/2000/svg">
<g clip-path="url(#clip0_2_799)">
<path d="M15.991 4.21824C9.01593 -1.88242 0.147291 3.4778 0.00186441 10.7444C-0.0351953 12.5964 0.499389 14.4003 1.5635 16.0633H8.46072L9.6875 14.0186C10.0437 13.425 10.9058 13.4059 11.2822 13.9977L13.8706 18.0651L17.6436 10.1C17.9726 9.40497 18.9532 9.38291 19.3161 10.0569L22.5504 16.0633H30.4184C36.2468 6.95403 24.7279 -3.42336 15.991 4.21824Z" fill="white"/>
<path d="M21.1651 17.4451L18.5443 12.5779L14.8383 20.4017C14.523 21.0674 13.5956 21.1252 13.2002 20.5037L10.5148 16.2838L9.79531 17.483C9.62588 17.7654 9.32078 17.9381 8.99149 17.9381H3.04645C3.23281 18.1331 2.23957 17.1419 15.3298 30.1643C15.6954 30.5281 16.2864 30.5281 16.652 30.1643C29.5408 17.3423 28.7494 18.1328 28.9354 17.9381H21.9905C21.6456 17.9382 21.3286 17.7488 21.1651 17.4451Z" fill="white"/>
</g>
<defs>
<clipPath id="clip0_2_799">
<rect width="32" height="32" fill="white"/>
</clipPath>
</defs>
</svg>
